<svg width="375" height="446" viewBox="0 0 375 446" fill="none" xmlns="http://www.w3.org/2000/svg">
<g filter="url(#filter0_d_1_6)">
<path d="M182.87 124.095V121.032C182.87 118.253 185.167 116 188 116C190.833 116 193.13 118.253 193.13 121.032V124.095C193.13 126.875 190.833 129.128 188 129.128C185.167 129.128 182.87 126.875 182.87 124.095ZM133.263 139.83C134.213 141.446 135.937 142.349 137.711 142.349C138.58 142.349 139.462 142.131 140.269 141.674C142.723 140.285 143.565 137.208 142.15 134.801L140.59 132.148C139.173 129.74 136.035 128.915 133.583 130.303C131.129 131.692 130.287 134.77 131.703 137.177L133.263 139.83ZM235.729 141.674C236.536 142.132 237.418 142.349 238.288 142.349C240.061 142.349 241.786 141.446 242.736 139.832L244.297 137.179C245.713 134.772 244.873 131.694 242.419 130.305C239.966 128.916 236.829 129.741 235.412 132.147L233.851 134.8C232.434 137.207 233.275 140.284 235.729 141.674ZM275.116 178.469C275.986 178.469 276.869 178.251 277.677 177.793L280.381 176.262C282.834 174.872 283.674 171.793 282.257 169.387C280.841 166.98 277.704 166.155 275.25 167.546L272.546 169.078C270.093 170.468 269.253 173.545 270.669 175.952C271.619 177.566 273.343 178.469 275.116 178.469ZM288.45 267.719C281.789 280.67 263.175 289.371 242.131 289.371C227.705 289.371 214.192 285.29 205.005 278.301C199.743 281.839 194.187 284.117 188.682 284.813C188.431 284.845 188.18 284.857 187.937 284.855C187.732 284.853 187.525 284.839 187.319 284.813C181.814 284.116 176.258 281.838 170.995 278.301C161.808 285.29 148.296 289.371 133.869 289.371C112.825 289.371 94.2112 280.67 87.5499 267.719C86.817 266.293 86.8164 264.611 87.5499 263.185C92.4648 253.627 103.704 246.379 117.926 243.238C110.546 232.955 107.852 220.804 111.194 210.41C111.603 209.138 112.511 208.077 113.716 207.461C122.145 203.153 132.835 202.841 143.24 206.419C144.785 201.399 147.216 197.03 150.51 193.625C151.637 192.46 153.264 191.893 154.887 192.098C157.577 192.439 160.28 193.157 162.955 194.216C168.382 182.963 176.382 174.571 185.859 170.304C187.217 169.693 188.78 169.693 190.138 170.304C199.612 174.568 207.609 182.955 213.038 194.2C215.713 193.151 218.418 192.44 221.114 192.098C222.738 191.893 224.364 192.46 225.49 193.625C228.785 197.03 231.215 201.398 232.76 206.418C243.166 202.841 253.855 203.154 262.283 207.46C263.488 208.077 264.396 209.137 264.805 210.409C268.149 220.804 265.454 232.954 258.073 243.236C272.296 246.378 283.535 253.626 288.45 263.184C289.183 264.611 289.183 266.293 288.45 267.719ZM226.339 253.443C231.909 252.086 237.443 249.289 242.318 245.277C252.274 237.082 257.488 225.15 255.557 215.507C249.532 213.211 242.016 213.567 234.61 216.483C235.321 225.879 233.594 236.508 229.327 246.968C228.421 249.192 227.42 251.354 226.339 253.443ZM171.95 199.119C177.86 203.246 183.372 208.958 187.989 215.792C192.63 208.885 198.136 203.182 204.032 199.079C200.081 190.704 194.425 184.154 188 180.535C181.563 184.16 175.901 190.725 171.95 199.119ZM133.681 245.277C138.555 249.289 144.09 252.087 149.662 253.444C148.58 251.354 147.581 249.193 146.673 246.967C142.407 236.508 140.68 225.878 141.39 216.483C133.984 213.566 126.469 213.21 120.442 215.506C118.511 225.15 123.725 237.082 133.681 245.277ZM162.891 271.627C160.682 269.447 158.572 267.04 156.594 264.439C146.429 264.269 135.824 260.181 127.086 252.987C126.718 252.685 126.357 252.379 126 252.069C113.506 253.588 103.034 258.64 98.1075 265.451C104.097 273.716 118.259 279.307 133.868 279.307C144.95 279.307 155.549 276.44 162.891 271.627ZM186.006 233.684C180.894 221.15 172.347 210.813 163.363 205.596C163.112 205.48 162.875 205.345 162.652 205.195C160.526 204.027 158.381 203.15 156.254 202.6C154.127 205.583 152.704 209.399 151.995 213.746C151.977 214.011 151.937 214.277 151.875 214.539C150.691 222.936 152.103 233.192 156.197 243.229C160.329 253.358 166.703 262.052 173.739 267.769C173.903 267.885 174.062 268.012 174.214 268.15C178.026 271.162 182.021 273.298 185.949 274.314C192.254 265.471 192.38 249.312 186.006 233.684ZM219.802 243.228C223.894 233.195 225.307 222.942 224.126 214.547C224.061 214.278 224.02 214.006 224.002 213.735C223.294 209.392 221.87 205.579 219.745 202.598C217.649 203.138 215.534 203.995 213.433 205.136C213.155 205.332 212.853 205.503 212.53 205.645C205.552 209.714 198.818 216.878 193.748 225.899C194.376 227.222 194.971 228.571 195.531 229.945C201.348 244.207 202.445 258.782 199.077 270.12C199.992 269.51 200.901 268.848 201.8 268.137C201.942 268.009 202.09 267.891 202.244 267.782C209.286 262.064 215.668 253.365 219.802 243.228ZM277.892 265.451C272.965 258.64 262.493 253.588 249.998 252.069C249.642 252.379 249.279 252.685 248.912 252.987C240.174 260.18 229.57 264.267 219.405 264.439C217.428 267.04 215.318 269.446 213.108 271.627C220.451 276.439 231.051 279.307 242.131 279.307C257.74 279.307 271.902 273.716 277.892 265.451ZM237.728 302.672C235.592 300.846 232.352 301.066 230.491 303.161C227.256 306.804 211.934 311.935 188 311.935C164.065 311.935 148.744 306.804 145.509 303.161C143.648 301.066 140.408 300.846 138.271 302.672C136.135 304.497 135.912 307.676 137.773 309.772C145.787 318.798 169.839 322 188.001 322C206.162 322 230.214 318.797 238.228 309.772C240.088 307.675 239.864 304.497 237.728 302.672ZM120.565 196.191C123.29 196.944 126.125 195.386 126.894 192.711C134.562 166.011 159.69 147.362 188 147.362C216.31 147.362 241.438 166.011 249.106 192.711C249.744 194.931 251.802 196.381 254.041 196.381C254.502 196.381 254.97 196.319 255.435 196.191C258.162 195.437 259.75 192.657 258.981 189.982C250.073 158.962 220.884 137.297 188 137.297C155.116 137.297 125.927 158.962 117.019 189.982C116.251 192.657 117.838 195.437 120.565 196.191ZM188 305.087C192.407 305.087 207.196 304.625 212.459 298.694C214.319 296.597 214.095 293.419 211.958 291.594C209.833 289.778 206.614 289.987 204.75 292.053C203.58 293.095 197.508 295.022 188 295.022C178.49 295.022 172.417 293.095 171.248 292.051C169.383 289.987 166.166 289.778 164.04 291.594C161.904 293.42 161.68 296.599 163.541 298.694C168.806 304.626 183.594 305.087 188 305.087ZM95.619 176.26L98.3212 177.793C99.1294 178.251 100.012 178.469 100.883 178.469C102.655 178.469 104.379 177.567 105.33 175.953C106.747 173.546 105.908 170.468 103.454 169.078L100.752 167.546C98.3007 166.156 95.1613 166.978 93.7444 169.386C92.3269 171.792 93.1664 174.87 95.619 176.26Z" fill="white"/>
</g>
<defs>
<filter id="filter0_d_1_6" x="-33" y="0" width="442" height="446" filterUnits="userSpaceOnUse" color-interpolation-filters="sRGB">
<feFlood flood-opacity="0" result="BackgroundImageFix"/>
<feColorMatrix in="SourceAlpha" type="matrix" values="0 0 0 0 0 0 0 0 0 0 0 0 0 0 0 0 0 0 127 0" result="hardAlpha"/>
<feOffset dy="4"/>
<feGaussianBlur stdDeviation="60"/>
<feColorMatrix type="matrix" values="0 0 0 0 1 0 0 0 0 1 0 0 0 0 1 0 0 0 0.5 0"/>
<feBlend mode="normal" in2="BackgroundImageFix" result="effect1_dropShadow_1_6"/>
<feBlend mode="normal" in="SourceGraphic" in2="effect1_dropShadow_1_6" result="shape"/>
</filter>
</defs>
</svg>
